<?xml version="1.0" encoding="UTF-8"?>
<svg width="64px" height="64px" viewBox="0 0 64 64" version="1.1" xmlns="http://www.w3.org/2000/svg" xmlns:xlink="http://www.w3.org/1999/xlink">
    <!-- Generator: Sketch 52.5 (67469) - http://www.bohemiancoding.com/sketch -->
    <title>Shape</title>
    <desc>Created with Sketch.</desc>
    <g id="UI---Website" stroke="none" stroke-width="1" fill="none" fill-rule="evenodd">
        <g id="Home---Pricing" transform="translate(-819.000000, -1168.000000)" fill="#EAA700" fill-rule="nonzero">
            <g id="noun_Talent-search_583244" transform="translate(819.000000, 1168.000000)">
                <path d="M24.4494382,0.260444045 C10.9634208,0.260444045 0,11.223867 0,24.7098822 C0,38.1959191 10.9634208,49.1593204 24.4494382,49.1593204 C30.6782828,49.1593204 36.3532728,46.8030001 40.6741573,42.9570733 L45.4382022,47.7211182 L43.5730337,49.5862867 C43.2999679,49.8564564 43.1463153,50.2246277 43.1463153,50.6087587 C43.1463153,50.9928896 43.2999679,51.3610609 43.5730337,51.6312306 L55.0561798,63.1368485 C55.3263495,63.4099143 55.6945207,63.5635669 56.0786517,63.5635669 C56.4627826,63.5635669 56.8309539,63.4099143 57.1011236,63.1368485 L62.8764045,57.3615676 C63.1494703,57.091398 63.3031229,56.7232267 63.3031229,56.3390957 C63.3031229,55.9549648 63.1494703,55.5867935 62.8764045,55.3166238 L51.3707865,43.8334778 C50.8491437,43.2896882 49.9962374,43.2406705 49.4157303,43.7211182 C49.383912,43.7570483 49.3539119,43.7945484 49.3258427,43.8334778 L47.4606742,45.6986463 L42.7191011,40.9346013 C46.5591342,36.6150767 48.8988764,30.9333832 48.8988764,24.7098822 C48.8988764,11.223867 37.9354556,0.260444045 24.4494382,0.260444045 Z M24.4494382,3.13684854 C36.3809309,3.13684854 46.0224719,12.778391 46.0224719,24.7098822 C46.0224719,36.6413663 36.3809309,46.282916 24.4494382,46.282916 C12.5179455,46.282916 2.87640449,36.6413663 2.87640449,24.7098822 C2.87640449,12.778391 12.5179455,3.13684854 24.4494382,3.13684854 Z M24.4494382,9.60875865 C20.8921276,9.60875865 17.9775281,12.5233834 17.9775281,16.0806688 C17.9775281,19.6379542 20.8921276,22.5525789 24.4494382,22.5525789 C28.0067488,22.5525789 30.9213483,19.6379542 30.9213483,16.0806688 C30.9213483,12.5233834 28.0067488,9.60875865 24.4494382,9.60875865 Z M24.4494382,12.4851631 C26.4522089,12.4851631 28.0449438,14.0779218 28.0449438,16.0806688 C28.0449438,18.0834157 26.4522089,19.6761744 24.4494382,19.6761744 C22.4466689,19.6761744 20.8539326,18.0834157 20.8539326,16.0806688 C20.8539326,14.0779218 22.4466689,12.4851631 24.4494382,12.4851631 Z M24.4494382,23.9907811 C17.7667524,23.9907811 12.2247191,29.1035901 12.2247191,35.4963991 C12.2247985,36.2906634 12.8686571,36.9345219 13.6629213,36.9346013 L35.2359551,36.9346013 C36.0302193,36.9345219 36.6740779,36.2906634 36.6741573,35.4963991 C36.6741573,29.1035901 31.1321248,23.9907811 24.4494382,23.9907811 Z M24.4494382,26.8671856 C29.137344,26.8671856 32.9026157,30.0059182 33.6404494,34.0581969 L15.258427,34.0581969 C15.9962607,30.0059182 19.7615331,26.8671856 24.4494382,26.8671856 Z M50.3370787,46.8671856 L59.8202247,56.3503317 L56.0898876,60.0806688 L46.6067416,50.5975227 L50.3370787,46.8671856 Z" id="Shape"></path>
            </g>
        </g>
    </g>
</svg>