<?xml version="1.0" encoding="UTF-8"?>
<svg width="30px" height="30px" viewBox="0 0 30 30" version="1.1" xmlns="http://www.w3.org/2000/svg" xmlns:xlink="http://www.w3.org/1999/xlink">
    <!-- Generator: sketchtool 52.3 (67297) - http://www.bohemiancoding.com/sketch -->
    <title>D55F66F2-2B2F-4AB4-8B3F-7532394C8B2C</title>
    <desc>Created with sketchtool.</desc>
    <g id="Symbols" stroke="none" stroke-width="1" fill="none" fill-rule="evenodd">
        <g id="icons/nav/home/none" fill="#ACB1B8" fill-rule="nonzero">
            <path d="M12,20.6666668 L12,15.0000001 C12,14.4477153 12.4477153,14.0000001 13,14.0000001 L17.0000001,14.0000001 C17.5522848,14.0000001 18.0000001,14.4477153 18.0000001,15.0000001 L18.0000001,20.6666668 L19.6666667,20.6666668 C19.8507617,20.6666668 20.0000001,20.5174283 20.0000001,20.3333334 L20.0000001,13.4890838 L15,9.60019493 L10,13.4890838 L10,20.3333334 C10,20.5174283 10.1492384,20.6666668 10.3333334,20.6666668 L12,20.6666668 Z M14,20.6666668 L16.0000001,20.6666668 L16.0000001,16.0000001 L14,16.0000001 L14,20.6666668 Z M8.3860594,12.2106478 L14.3860594,7.54398112 C14.7471699,7.26311741 15.2528302,7.26311741 15.6139407,7.54398112 L21.6139407,12.2106478 C21.8575272,12.400104 22.0000001,12.6914096 22.0000001,13 L22.0000001,20.3333334 C22.0000001,21.6219978 20.9553312,22.6666668 19.6666667,22.6666668 L10.3333334,22.6666668 C9.04466893,22.6666668 8.00000001,21.6219978 8.00000001,20.3333334 L8.00000001,13 C8.00000001,12.6914096 8.14247286,12.400104 8.3860594,12.2106478 Z" id="Combined-Shape"></path>
        </g>
    </g>
</svg>