<?xml version="1.0" encoding="UTF-8"?>
<svg width="30px" height="30px" viewBox="0 0 30 30" version="1.1" xmlns="http://www.w3.org/2000/svg" xmlns:xlink="http://www.w3.org/1999/xlink">
    <!-- Generator: sketchtool 52.3 (67297) - http://www.bohemiancoding.com/sketch -->
    <title>24D635F8-1B13-48B8-BBDA-70D129FD7B24</title>
    <desc>Created with sketchtool.</desc>
    <g id="Symbols" stroke="none" stroke-width="1" fill="none" fill-rule="evenodd">
        <g id="icons/nav/usersRoles/none" fill="#ACB1B8" fill-rule="nonzero">
            <path d="M19.3333334,21 C19.3333334,21.5522848 18.8856181,22 18.3333334,22 C17.7810486,22 17.3333334,21.5522848 17.3333334,21 L17.3333334,19.6666667 C17.3333334,18.7461921 16.5871413,18 15.6666667,18 L10.3333333,18 C9.41285871,18 8.66666662,18.7461921 8.66666662,19.6666667 L8.66666662,21 C8.66666662,21.5522848 8.21895137,22 7.66666662,22 C7.11438187,22 6.66666662,21.5522848 6.66666662,21 L6.66666662,19.6666667 C6.66666662,17.6416226 8.30828921,16 10.3333333,16 L15.6666667,16 C17.6917108,16 19.3333334,17.6416226 19.3333334,19.6666667 L19.3333334,21 Z" id="Shape"></path>
            <path d="M13,15.3333333 C10.9749559,15.3333333 9.3333333,13.6917107 9.3333333,11.6666666 C9.3333333,9.64162255 10.9749559,7.99999996 13,7.99999996 C15.0250441,7.99999996 16.6666667,9.64162255 16.6666667,11.6666666 C16.6666667,13.6917107 15.0250441,15.3333333 13,15.3333333 Z M13,13.3333333 C13.9204746,13.3333333 14.6666667,12.5871412 14.6666667,11.6666666 C14.6666667,10.7461921 13.9204746,9.99999996 13,9.99999996 C12.0795254,9.99999996 11.3333333,10.7461921 11.3333333,11.6666666 C11.3333333,12.5871412 12.0795254,13.3333333 13,13.3333333 Z" id="Oval"></path>
            <path d="M23.3333334,21 C23.3333334,21.5522848 22.8856181,22 22.3333334,22 C21.7810486,22 21.3333334,21.5522848 21.3333334,21 L21.3333337,19.6674126 C21.3327671,18.9078783 20.8187498,18.244796 20.0833336,18.0549126 C19.5485862,17.9168416 19.2270164,17.3714144 19.3650875,16.836667 C19.5031585,16.3019195 20.0485856,15.9803497 20.5833331,16.1184208 C22.2012486,16.5361643 23.3320867,17.9949454 23.3333334,19.6666667 L23.3333334,21 Z" id="Shape"></path>
            <path d="M17.4186275,10.0554166 C16.8836016,9.91842837 16.5609284,9.3736533 16.6979167,8.83862744 C16.8349049,8.30360159 17.37968,7.98092837 17.9147059,8.11791663 C19.5371278,8.53332227 20.6718955,9.99524186 20.6718955,11.67 C20.6718955,13.3447581 19.5371278,14.8066777 17.9147059,15.2220833 C17.37968,15.3590716 16.8349049,15.0363984 16.6979167,14.5013725 C16.5609284,13.9663467 16.8836016,13.4215716 17.4186275,13.2845833 C18.156092,13.0957626 18.6718955,12.4312537 18.6718955,11.67 C18.6718955,10.9087463 18.156092,10.2442374 17.4186275,10.0554166 Z" id="Shape"></path>
        </g>
    </g>
</svg>