<?xml version="1.0" encoding="UTF-8"?>
<svg width="30px" height="30px" viewBox="0 0 30 30" version="1.1" xmlns="http://www.w3.org/2000/svg" xmlns:xlink="http://www.w3.org/1999/xlink">
    <!-- Generator: sketchtool 52.3 (67297) - http://www.bohemiancoding.com/sketch -->
    <title>D174CCB0-9AB9-4710-8214-5B511DACBD62</title>
    <desc>Created with sketchtool.</desc>
    <g id="Symbols" stroke="none" stroke-width="1" fill="none" fill-rule="evenodd">
        <g id="icons/nav/reports/none" fill="#ACB1B8" fill-rule="nonzero">
            <path d="M16.3333333,7.33333329 C16.5985498,7.33333329 16.8529037,7.43869013 17.0404401,7.62622651 L21.0404401,11.6262265 C21.2279765,11.8137629 21.3333334,12.0681168 21.3333334,12.3333333 L21.3333334,20.3333334 C21.3333334,21.6219978 20.2886644,22.6666667 19,22.6666667 L11,22.6666667 C9.71133555,22.6666667 8.66666663,21.6219978 8.66666663,20.3333334 L8.66666663,9.66666663 C8.66666663,8.37800221 9.71133555,7.33333329 11,7.33333329 L16.3333333,7.33333329 Z M11,9.33333329 C10.8159051,9.33333329 10.6666666,9.48257171 10.6666666,9.66666663 L10.6666666,20.3333334 C10.6666666,20.5174283 10.8159051,20.6666667 11,20.6666667 L19,20.6666667 C19.1840949,20.6666667 19.3333334,20.5174283 19.3333334,20.3333334 L19.3333334,12.7475469 L15.9191198,9.33333329 L11,9.33333329 Z" id="Shape"></path>
            <path d="M20.3333334,11.3333333 C20.8856181,11.3333333 21.3333334,11.7810486 21.3333334,12.3333333 C21.3333334,12.8856181 20.8856181,13.3333333 20.3333334,13.3333333 L16.3333333,13.3333333 C15.7810486,13.3333333 15.3333333,12.8856181 15.3333333,12.3333333 L15.3333333,8.33333329 C15.3333333,7.78104854 15.7810486,7.33333329 16.3333333,7.33333329 C16.8856181,7.33333329 17.3333333,7.78104854 17.3333333,8.33333329 L17.3333333,11.3333333 L20.3333334,11.3333333 Z" id="Shape"></path>
            <path d="M17.6666667,14.6666667 C18.2189514,14.6666667 18.6666667,15.1143819 18.6666667,15.6666667 C18.6666667,16.2189514 18.2189514,16.6666667 17.6666667,16.6666667 L12.3333333,16.6666667 C11.7810486,16.6666667 11.3333333,16.2189514 11.3333333,15.6666667 C11.3333333,15.1143819 11.7810486,14.6666667 12.3333333,14.6666667 L17.6666667,14.6666667 Z" id="Shape"></path>
            <path d="M17.6666667,17.3333334 C18.2189514,17.3333334 18.6666667,17.7810486 18.6666667,18.3333334 C18.6666667,18.8856181 18.2189514,19.3333334 17.6666667,19.3333334 L12.3333333,19.3333334 C11.7810486,19.3333334 11.3333333,18.8856181 11.3333333,18.3333334 C11.3333333,17.7810486 11.7810486,17.3333334 12.3333333,17.3333334 L17.6666667,17.3333334 Z" id="Shape"></path>
            <path d="M13.6666667,12 C14.2189514,12 14.6666667,12.4477152 14.6666667,13 C14.6666667,13.5522847 14.2189514,14 13.6666667,14 L12.3333333,14 C11.7810486,14 11.3333333,13.5522847 11.3333333,13 C11.3333333,12.4477152 11.7810486,12 12.3333333,12 L13.6666667,12 Z" id="Shape"></path>
        </g>
    </g>
</svg>