<?xml version="1.0" encoding="UTF-8"?>
<svg width="30px" height="30px" viewBox="0 0 30 30" version="1.1" xmlns="http://www.w3.org/2000/svg" xmlns:xlink="http://www.w3.org/1999/xlink">
    <!-- Generator: sketchtool 52.3 (67297) - http://www.bohemiancoding.com/sketch -->
    <title>A46DB5AC-19CD-4C02-AD47-FBBBD7CB6BB9</title>
    <desc>Created with sketchtool.</desc>
    <g id="Symbols" stroke="none" stroke-width="1" fill="none" fill-rule="evenodd">
        <g id="icons/nav/payment/none" fill="#ACB1B8" fill-rule="nonzero">
            <path d="M16,9.3333333 L18.3333334,9.3333333 C18.8856181,9.3333333 19.3333334,9.78104855 19.3333334,10.3333333 C19.3333334,10.8856181 18.8856181,11.3333333 18.3333334,11.3333333 L16,11.3333333 L16,14 L16.6666667,14 C18.5076158,14 20,15.4923842 20,17.3333333 C20,19.1742825 18.5076158,20.6666667 16.6666667,20.6666667 L16,20.6666667 L16,22.3333334 C16,22.8856181 15.5522847,23.3333334 15,23.3333334 C14.4477153,23.3333334 14,22.8856181 14,22.3333334 L14,20.6666667 L11,20.6666667 C10.4477152,20.6666667 9.99999998,20.2189514 9.99999998,19.6666667 C9.99999998,19.1143819 10.4477152,18.6666667 11,18.6666667 L14,18.6666667 L14,16 L13.3333333,16 C11.4923841,16 9.99999998,14.5076158 9.99999998,12.6666667 C9.99999998,10.8257175 11.4923841,9.3333333 13.3333333,9.3333333 L14,9.3333333 L14,7.66666662 C14,7.11438187 14.4477153,6.66666662 15,6.66666662 C15.5522847,6.66666662 16,7.11438187 16,7.66666662 L16,9.3333333 Z M16,16 L16,18.6666667 L16.6666667,18.6666667 C17.4030463,18.6666667 18,18.069713 18,17.3333333 C18,16.5969537 17.4030463,16 16.6666667,16 L16,16 Z M14,14 L14,11.3333333 L13.3333333,11.3333333 C12.5969536,11.3333333 12,11.930287 12,12.6666667 C12,13.4030463 12.5969536,14 13.3333333,14 L14,14 Z" id="Combined-Shape"></path>
        </g>
    </g>
</svg>