<?xml version="1.0" encoding="UTF-8"?>
<svg width="30px" height="30px" viewBox="0 0 30 30" version="1.1" xmlns="http://www.w3.org/2000/svg" xmlns:xlink="http://www.w3.org/1999/xlink">
    <!-- Generator: sketchtool 52.3 (67297) - http://www.bohemiancoding.com/sketch -->
    <title>24F93116-EE3E-43EB-A51D-1FC181DC5BD3</title>
    <desc>Created with sketchtool.</desc>
    <g id="Symbols" stroke="none" stroke-width="1" fill="none" fill-rule="evenodd">
        <g id="icons/nav/settings/none" fill="#ACB1B8" fill-rule="nonzero">
            <path d="M15,18 C13.3431457,18 12,16.6568543 12,15 C12,13.3431457 13.3431457,12 15,12 C16.6568543,12 18,13.3431457 18,15 C18,16.6568543 16.6568543,18 15,18 Z M15,16 C15.5522848,16 16,15.5522848 16,15 C16,14.4477152 15.5522848,14 15,14 C14.4477152,14 14,14.4477152 14,15 C14,15.5522848 14.4477152,16 15,16 Z" id="Oval"></path>
            <path d="M20.94,15.3333333 L21,15.3333333 C21.184095,15.3333333 21.3333334,15.1840949 21.3333334,15 C21.3333334,14.8159051 21.184095,14.6666667 21,14.6666667 L20.8826784,14.6666587 C20.0456783,14.6633205 19.2905835,14.1632577 18.9608602,13.3939314 C18.9294768,13.3207062 18.9070354,13.2441799 18.8938755,13.1660071 C18.6468885,12.4249056 18.8318703,11.5996833 19.3928933,11.0262265 L19.4332867,10.9858333 C19.495879,10.9233106 19.5310489,10.8384697 19.5310489,10.75 C19.5310489,10.6615302 19.495879,10.5766894 19.4325,10.51338 C19.3699773,10.4507876 19.2851364,10.4156178 19.1966667,10.4156178 C19.1081969,10.4156178 19.0233561,10.4507876 18.9604401,10.5137734 L18.9125983,10.5615292 C18.2989061,11.1618312 17.381622,11.328152 16.6060686,10.9858065 C15.8367423,10.6560832 15.3366795,9.90098836 15.3333333,9.05999996 L15.3333333,8.99999996 C15.3333333,8.81590504 15.1840949,8.66666662 15,8.66666662 C14.8159051,8.66666662 14.6666667,8.81590504 14.6666667,8.99999996 L14.6666587,9.11732161 C14.6633205,9.95432169 14.1632577,10.7094165 13.3939314,11.0391398 C13.3207062,11.0705232 13.2441799,11.0929646 13.1660071,11.1061245 C12.4249056,11.3531115 11.5996833,11.1681297 11.0262265,10.6071067 L10.9858333,10.5667133 C10.9233106,10.504121 10.8384697,10.4689511 10.75,10.4689511 C10.6615302,10.4689511 10.5766894,10.504121 10.51338,10.5675 C10.4507876,10.6300227 10.4156178,10.7148636 10.4156178,10.8033333 C10.4156178,10.8918031 10.4507876,10.9766439 10.5137734,11.0395599 L10.5615292,11.0874017 C11.1618312,11.7010939 11.328152,12.618378 11.0052027,13.3451811 C10.7075562,14.1544724 9.94543987,14.6995622 9.05999996,14.72 L8.99999996,14.72 C8.81590504,14.72 8.66666662,14.8692384 8.66666662,15.0533333 C8.66666662,15.2374283 8.81590504,15.3866667 8.99999996,15.3866667 L9.11732161,15.3866746 C9.95432169,15.3900129 10.7094165,15.8900757 11.0348626,16.649568 C11.3814853,17.4349554 11.2151646,18.3522394 10.6071067,18.9737735 L10.5667133,19.0141667 C10.504121,19.0766894 10.4689511,19.1615303 10.4689511,19.25 C10.4689511,19.3384698 10.504121,19.4233106 10.5675,19.48662 C10.6300227,19.5492124 10.7148636,19.5843822 10.8033333,19.5843822 C10.8918031,19.5843822 10.9766439,19.5492124 11.0395599,19.4862266 L11.0874017,19.4384708 C11.7010939,18.8381688 12.618378,18.671848 13.3451811,18.9947973 C14.1544724,19.2924438 14.6995622,20.0545601 14.72,20.94 L14.72,21 C14.72,21.184095 14.8692384,21.3333334 15.0533333,21.3333334 C15.2374283,21.3333334 15.3866667,21.184095 15.3866667,21 L15.3866746,20.8826784 C15.3900129,20.0456783 15.8900757,19.2905835 16.649568,18.9651374 C17.4349554,18.6185147 18.3522394,18.7848354 18.9737735,19.3928933 L19.0141667,19.4332867 C19.0766894,19.495879 19.1615303,19.5310489 19.25,19.5310489 C19.3384698,19.5310489 19.4233106,19.495879 19.48662,19.4325 C19.5492124,19.3699773 19.5843822,19.2851364 19.5843822,19.1966667 C19.5843822,19.1081969 19.5492124,19.0233561 19.4862266,18.9604401 L19.4384708,18.9125983 C18.8394191,18.3001843 18.6725427,17.3854418 19.0163116,16.6011439 C19.3471433,15.8346081 20.1008082,15.3366724 20.94,15.3333333 Z M20.8866667,12.6666667 L21,12.6666667 C22.2886645,12.6666667 23.3333334,13.7113356 23.3333334,15 C23.3333334,16.2886644 22.2886645,17.3333333 21,17.3333333 L20.9439883,17.3333254 C20.9041312,17.3334844 20.8681743,17.3572969 20.8524732,17.3939315 L20.8481959,17.4037654 C20.8316901,17.4411648 20.8396101,17.484845 20.8604401,17.5062266 L20.9000467,17.5458334 C21.3381931,17.9834926 21.5843822,18.5773784 21.5843822,19.1966667 C21.5843822,19.8159549 21.3381931,20.4098408 20.9008334,20.8467134 C20.4631741,21.2848598 19.8692883,21.5310489 19.25,21.5310489 C18.6307118,21.5310489 18.036826,21.2848598 17.5995599,20.8471068 L17.5674017,20.8148626 C17.5381783,20.7862768 17.4944981,20.7783568 17.4472648,20.7991399 C17.4106302,20.814841 17.3868177,20.8507979 17.3866667,20.8866667 L17.3866667,21 C17.3866667,22.2886645 16.3419978,23.3333334 15.0533333,23.3333334 C13.7646689,23.3333334 12.72,22.2886645 12.72,21 L12.7202734,20.9633846 C12.7193132,20.9223344 12.6933566,20.8860431 12.5962346,20.8481959 C12.5588352,20.8316901 12.515155,20.8396101 12.4937734,20.8604401 L12.4541666,20.9000467 C12.0165074,21.3381931 11.4226216,21.5843822 10.8033333,21.5843822 C10.1840451,21.5843822 9.59015924,21.3381931 9.15328662,20.9008334 C8.71514019,20.4631741 8.46895109,19.8692883 8.46895109,19.25 C8.46895109,18.6307118 8.71514019,18.036826 9.15289319,17.5995599 L9.18513738,17.5674017 C9.2137232,17.5381783 9.22164323,17.4944981 9.20086014,17.4472648 C9.18515903,17.4106302 9.14920213,17.3868177 9.1133333,17.3866667 L8.99999996,17.3866667 C7.71133554,17.3866667 6.66666662,16.3419978 6.66666662,15.0533333 C6.66666662,13.7646689 7.71133554,12.72 8.99999996,12.72 L9.03661538,12.7202734 C9.07766563,12.7193132 9.11395689,12.6933566 9.15180405,12.5962346 C9.1683099,12.5588352 9.16038986,12.515155 9.13955985,12.4937734 L9.09995329,12.4541666 C8.66180686,12.0165074 8.41561776,11.4226216 8.41561776,10.8033333 C8.41561776,10.1840451 8.66180686,9.59015924 9.09916663,9.15328662 C9.5368259,8.71514019 10.1307117,8.46895109 10.75,8.46895109 C11.3692882,8.46895109 11.963174,8.71514019 12.4004401,9.15289319 L12.4325983,9.18513738 C12.4618217,9.2137232 12.5055019,9.22164323 12.5429013,9.20513739 C12.5778014,9.1897346 12.6134775,9.17637507 12.6497483,9.16509703 C12.6604864,9.14956391 12.6665904,9.13143739 12.6666667,9.1133333 L12.6666667,8.99999996 C12.6666667,7.71133554 13.7113356,6.66666662 15,6.66666662 C16.2886644,6.66666662 17.3333333,7.71133554 17.3333333,8.99999996 L17.3333254,9.05601165 C17.3334844,9.0958688 17.3572969,9.1318257 17.4037654,9.15180405 C17.4411648,9.1683099 17.484845,9.16038986 17.5062266,9.13955985 L17.5458334,9.09995329 C17.9834926,8.66180686 18.5773784,8.41561776 19.1966667,8.41561776 C19.8159549,8.41561776 20.4098408,8.66180686 20.8467134,9.09916663 C21.2848598,9.5368259 21.5310489,10.1307117 21.5310489,10.75 C21.5310489,11.3692882 21.2848598,11.963174 20.8471068,12.4004401 L20.8148626,12.4325983 C20.7862768,12.4618217 20.7783568,12.5055019 20.7948626,12.5429013 C20.8102654,12.5778014 20.8236249,12.6134775 20.834903,12.6497483 C20.8504361,12.6604864 20.8685626,12.6665904 20.8866667,12.6666667 Z" id="Shape"></path>
        </g>
    </g>
</svg>