<?xml version="1.0" encoding="UTF-8"?>
<svg width="30px" height="30px" viewBox="0 0 30 30" version="1.1" xmlns="http://www.w3.org/2000/svg" xmlns:xlink="http://www.w3.org/1999/xlink">
    <!-- Generator: sketchtool 52.3 (67297) - http://www.bohemiancoding.com/sketch -->
    <title>24F93116-EE3E-43EB-A51D-1FC181DC5BD3</title>
    <desc>Created with sketchtool.</desc>
    <g id="Symbols" stroke="none" stroke-width="1" fill="none" fill-rule="evenodd" stroke-linecap="round" stroke-linejoin="round">
        <g id="icons/nav/settings/none" stroke="#ACB1B8" stroke-width="2">
            <circle id="Oval" cx="15" cy="15" r="2.00000001"></circle>
            <path d="M19.9333334,17 C19.7517691,17.4113934 19.8388894,17.8918755 20.1533334,18.2133334 L20.1933334,18.2533334 C20.4437028,18.5034244 20.5843822,18.8427877 20.5843822,19.1966667 C20.5843822,19.5505457 20.4437028,19.889909 20.1933334,20.14 C19.9432424,20.3903694 19.603879,20.5310489 19.25,20.5310489 C18.896121,20.5310489 18.5567577,20.3903694 18.3066667,20.14 L18.2666667,20.1 C17.9452089,19.7855561 17.4647267,19.6984357 17.0533333,19.88 C16.6503529,20.0527122 16.3884153,20.4482381 16.3866667,20.8866667 L16.3866667,21 C16.3866667,21.7363797 15.789713,22.3333334 15.0533333,22.3333334 C14.3169537,22.3333334 13.72,21.7363797 13.72,21 L13.72,20.94 C13.7094377,20.4884472 13.4239145,20.0892435 13,19.9333334 C12.5886066,19.7517691 12.1081245,19.8388894 11.7866666,20.1533334 L11.7466666,20.1933334 C11.4965756,20.4437028 11.1572123,20.5843822 10.8033333,20.5843822 C10.4494543,20.5843822 10.110091,20.4437028 9.85999997,20.1933334 C9.60963058,19.9432424 9.46895109,19.603879 9.46895109,19.25 C9.46895109,18.896121 9.60963058,18.5567577 9.85999997,18.3066667 L9.89999997,18.2666667 C10.2144439,17.9452089 10.3015643,17.4647267 10.12,17.0533333 C9.94728778,16.6503529 9.55176191,16.3884153 9.1133333,16.3866667 L8.99999996,16.3866667 C8.26362029,16.3866667 7.66666662,15.789713 7.66666662,15.0533333 C7.66666662,14.3169537 8.26362029,13.72 8.99999996,13.72 L9.05999996,13.72 C9.51155275,13.7094377 9.91075652,13.4239145 10.0666666,13 C10.2482309,12.5886066 10.1611106,12.1081245 9.84666663,11.7866666 L9.80666663,11.7466666 C9.55629724,11.4965756 9.41561776,11.1572123 9.41561776,10.8033333 C9.41561776,10.4494543 9.55629724,10.110091 9.80666663,9.85999997 C10.0567576,9.60963058 10.396121,9.46895109 10.75,9.46895109 C11.103879,9.46895109 11.4432423,9.60963058 11.6933333,9.85999997 L11.7333333,9.89999997 C12.0547911,10.2144439 12.5352733,10.3015643 12.9466667,10.12 L13,10.12 C13.4029804,9.94728778 13.6649181,9.55176191 13.6666667,9.1133333 L13.6666667,8.99999996 C13.6666667,8.26362029 14.2636203,7.66666662 15,7.66666662 C15.7363797,7.66666662 16.3333333,8.26362029 16.3333333,8.99999996 L16.3333333,9.05999996 C16.3350819,9.49842858 16.5970196,9.89395445 17,10.0666666 C17.4113934,10.2482309 17.8918755,10.1611106 18.2133334,9.84666663 L18.2533334,9.80666663 C18.5034244,9.55629724 18.8427877,9.41561776 19.1966667,9.41561776 C19.5505457,9.41561776 19.889909,9.55629724 20.14,9.80666663 C20.3903694,10.0567576 20.5310489,10.396121 20.5310489,10.75 C20.5310489,11.103879 20.3903694,11.4432423 20.14,11.6933333 L20.1,11.7333333 C19.7855561,12.0547911 19.6984357,12.5352733 19.88,12.9466667 L19.88,13 C20.0527122,13.4029804 20.4482381,13.6649181 20.8866667,13.6666667 L21,13.6666667 C21.7363797,13.6666667 22.3333334,14.2636203 22.3333334,15 C22.3333334,15.7363797 21.7363797,16.3333333 21,16.3333333 L20.94,16.3333333 C20.5015714,16.3350819 20.1060456,16.5970196 19.9333334,17 Z" id="Shape"></path>
        </g>
    </g>
</svg>