<!-- Generated by IcoMoon.io -->
<svg version="1.1" xmlns="http://www.w3.org/2000/svg" width="32" height="32" viewBox="0 0 32 32">
<title>icons-nav-settings-none</title>
<path fill="none" stroke="#acb1b8" stroke-linejoin="round" stroke-linecap="round" stroke-miterlimit="4" stroke-width="2.1333" d="M18.133 16c0 1.178-0.955 2.133-2.133 2.133s-2.133-0.955-2.133-2.133c0-1.178 0.955-2.133 2.133-2.133s2.133 0.955 2.133 2.133z"></path>
<path fill="none" stroke="#acb1b8" stroke-linejoin="round" stroke-linecap="round" stroke-miterlimit="4" stroke-width="2.1333" d="M21.262 18.133c-0.194 0.439-0.101 0.951 0.235 1.294l0.043 0.043c0.267 0.267 0.417 0.629 0.417 1.006s-0.15 0.739-0.417 1.006c-0.267 0.267-0.629 0.417-1.006 0.417s-0.739-0.15-1.006-0.417l-0.043-0.043c-0.343-0.335-0.855-0.428-1.294-0.235-0.43 0.184-0.709 0.606-0.711 1.074v0.121c0 0.785-0.637 1.422-1.422 1.422s-1.422-0.637-1.422-1.422v-0.064c-0.011-0.482-0.316-0.907-0.768-1.074-0.439-0.194-0.951-0.101-1.294 0.235l-0.043 0.043c-0.267 0.267-0.629 0.417-1.006 0.417s-0.739-0.15-1.006-0.417c-0.267-0.267-0.417-0.629-0.417-1.006s0.15-0.739 0.417-1.006l0.043-0.043c0.335-0.343 0.428-0.855 0.235-1.294-0.184-0.43-0.606-0.709-1.074-0.711h-0.121c-0.785 0-1.422-0.637-1.422-1.422s0.637-1.422 1.422-1.422h0.064c0.482-0.011 0.907-0.316 1.074-0.768 0.194-0.439 0.101-0.951-0.235-1.294l-0.043-0.043c-0.267-0.267-0.417-0.629-0.417-1.006s0.15-0.739 0.417-1.006c0.267-0.267 0.629-0.417 1.006-0.417s0.739 0.15 1.006 0.417l0.043 0.043c0.343 0.335 0.855 0.428 1.294 0.235h0.057c0.43-0.184 0.709-0.606 0.711-1.074v-0.121c0-0.785 0.637-1.422 1.422-1.422s1.422 0.637 1.422 1.422v0.064c0.002 0.468 0.281 0.89 0.711 1.074 0.439 0.194 0.951 0.101 1.294-0.235l0.043-0.043c0.267-0.267 0.629-0.417 1.006-0.417s0.739 0.15 1.006 0.417c0.267 0.267 0.417 0.629 0.417 1.006s-0.15 0.739-0.417 1.006l-0.043 0.043c-0.335 0.343-0.428 0.855-0.235 1.294v0.057c0.184 0.43 0.606 0.709 1.074 0.711h0.121c0.785 0 1.422 0.637 1.422 1.422s-0.637 1.422-1.422 1.422h-0.064c-0.468 0.002-0.89 0.281-1.074 0.711z"></path>
</svg>
