<!-- Generated by IcoMoon.io -->
<svg version="1.1" xmlns="http://www.w3.org/2000/svg" width="32" height="32" viewBox="0 0 32 32">
<title>icons-nav-users-roles-none</title>
<path fill="none" stroke="#acb1b8" stroke-linejoin="round" stroke-linecap="round" stroke-miterlimit="4" stroke-width="2.1333" d="M19.556 22.4v-1.422c0-1.571-1.273-2.844-2.844-2.844h-5.689c-1.571 0-2.844 1.273-2.844 2.844v1.422"></path>
<path fill="none" stroke="#acb1b8" stroke-linejoin="round" stroke-linecap="round" stroke-miterlimit="4" stroke-width="2.1333" d="M16.711 12.444c0 1.571-1.274 2.844-2.844 2.844s-2.844-1.274-2.844-2.844c0-1.571 1.274-2.844 2.844-2.844s2.844 1.274 2.844 2.844z"></path>
<path fill="none" stroke="#acb1b8" stroke-linejoin="round" stroke-linecap="round" stroke-miterlimit="4" stroke-width="2.1333" d="M23.822 22.4v-1.422c-0.001-1.296-0.878-2.428-2.133-2.752"></path>
<path fill="none" stroke="#acb1b8" stroke-linejoin="round" stroke-linecap="round" stroke-miterlimit="4" stroke-width="2.1333" d="M18.844 9.692c1.259 0.322 2.139 1.456 2.139 2.756s-0.88 2.433-2.139 2.756"></path>
</svg>
