<?xml version="1.0" encoding="UTF-8"?>
<svg width="67px" height="65px" viewBox="0 0 67 65" version="1.1" xmlns="http://www.w3.org/2000/svg" xmlns:xlink="http://www.w3.org/1999/xlink">
    <!-- Generator: Sketch 52.5 (67469) - http://www.bohemiancoding.com/sketch -->
    <title>noun_Money_1422526</title>
    <desc>Created with Sketch.</desc>
    <g id="UI---Website" stroke="none" stroke-width="1" fill="none" fill-rule="evenodd">
        <g id="Home---Pricing" transform="translate(-816.000000, -1167.000000)" fill="#EAA700">
            <g id="noun_Money_1422526" transform="translate(816.000000, 1167.000000)">
                <path d="M43.6617154,37.661463 C44.4338807,38.7095183 45.5775594,39.3326729 47.056849,39.535908 L47.056849,41.1134703 C47.056849,41.6619061 47.5220213,42.1062338 48.0975029,42.1062338 C48.6719439,42.1062338 49.1381569,41.661408 49.1381569,41.1134703 L49.1381569,39.5503536 C49.9930541,39.4382754 50.8198537,39.1762616 51.5498724,38.7334283 C52.4359893,38.1959513 53.1332274,37.323236 53.2633092,36.3269857 C53.5151474,34.4002376 52.3355662,32.7723645 50.3822587,32.2309025 C49.9696394,32.1168318 49.5549388,31.9997724 49.1381569,31.8881924 L49.1381569,28.1891149 C49.5081094,28.2917287 49.8567284,28.4371813 50.1475912,28.6319482 C50.6486661,28.9676846 50.981155,29.490716 51.202294,30.0192268 C51.3719206,30.42221 51.6893201,30.8610583 52.1659396,30.9686533 C52.6555673,31.0797352 53.2034716,30.7913208 53.2810003,30.298675 C53.3788218,29.6685467 53.1337478,28.9636996 52.5312091,28.1447818 C52.157094,27.6381885 51.7038892,27.2312203 51.1846029,26.9343377 C50.5617715,26.5791744 49.8603707,26.3639844 49.1386772,26.2553931 L49.1386772,24.1702412 C49.1386772,23.6213072 48.6724642,23.1769796 48.0980232,23.1769796 C47.5225416,23.1769796 47.0573693,23.6218053 47.0573693,24.1702412 L47.0573693,26.2215206 C46.8752548,26.2469249 46.6947014,26.2817937 46.5198715,26.3271231 C45.0463055,26.712672 43.6663984,27.5928591 43.3266248,29.0707965 C43.0898761,30.1019156 43.2105919,31.2904422 43.998367,32.0949143 C44.7939469,32.9078546 45.9485525,33.2221716 47.0573693,33.4936498 L47.0573693,37.6146392 C46.4059199,37.4208685 45.8325196,37.0960909 45.4901444,36.6607295 C45.1363221,36.2104244 45.004159,35.6425617 44.625361,35.2057059 C44.2127417,34.7290002 43.3385924,34.6473076 43.0196319,35.2430653 C42.7766392,35.6968573 42.9270137,36.3528882 43.1387868,36.793729 C43.2813564,37.092604 43.4634708,37.390981 43.6617154,37.661463 Z M49.1381569,33.9598949 C49.3395234,34.0126962 49.5382883,34.0704787 49.7328906,34.1382237 C50.9993665,34.5820532 51.5774498,35.9354593 50.6871703,36.9740503 C50.3224211,37.3994491 49.7635899,37.6510024 49.1381569,37.7566049 L49.1381569,33.9598949 Z M45.5182421,30.4610638 C44.8860448,29.4638172 45.9188939,28.42423 46.8861817,28.1527518 C46.9413364,28.1373099 47.0001333,28.1283437 47.056849,28.1158905 L47.056849,31.4070035 C46.429855,31.2426222 45.8585359,30.9955521 45.5182421,30.4610638 Z" id="Shape" fill-rule="nonzero"></path>
                <path d="M32.8419534,36.1220456 C33.3232559,42.897544 40.2482876,46.2135632 46.5572522,46.5318652 C47.2336773,46.5662358 50.5991522,46.5682283 51.3120002,46.5318652 C57.6220055,46.2130651 64.5459966,42.8970459 65.0267787,36.1220456 C65.4305524,30.4638419 62.5427377,25.8970305 59.0471811,21.608671 C57.1818088,19.3197858 54.7815405,17.0607882 53.0530143,14.6787537 L44.8157178,14.6787537 C43.087712,17.0607882 40.6869233,19.3197858 38.8215511,21.608671 C35.3275554,25.8970305 32.4381797,30.4633438 32.8419534,36.1220456 Z M45.8579328,16.6428612 L52.0107993,16.6428612 C52.938022,17.8169422 56.6916608,21.9080442 57.4336471,22.818617 C60.5332349,26.6208063 63.3502852,30.8473983 62.9834546,35.9880499 C62.5900875,41.5247111 56.7847993,44.2873132 51.2037722,44.5697502 C50.4945665,44.6056152 47.3621981,44.6051171 46.7180333,44.5722408 L46.6649599,44.5697502 C41.0849734,44.2878114 35.2786447,41.5252092 34.8847571,35.9870537 C34.5179266,30.8488927 37.3365379,26.6213044 40.4356053,22.8176207 C41.1775916,21.9085423 44.9312304,17.8174404 45.8579328,16.6428612 Z" id="Shape" fill-rule="nonzero"></path>
                <path d="M44.0909091,11 C43.4887273,11 43,11.448 43,12 C43,12.552 43.4887273,13 44.0909091,13 L53.9090909,13 C54.5112727,13 55,12.552 55,12 C55,11.448 54.5112727,11 53.9090909,11 L44.0909091,11 Z" id="Path"></path>
                <path d="M53.5495577,0 C52.2274068,0 51.6279902,1.44356671 50.5118888,1.88689811 C50.1825218,2.01790502 49.810488,2.04330941 49.4665519,1.95663563 C48.8598506,1.80271495 48.6798175,1.01468095 48.1605312,0.744697114 C47.4195856,0.360144491 46.8945756,1.31803917 46.4580213,1.71753555 C46.0001336,2.13596069 45.4038388,2.37007951 44.791414,2.1185263 C44.1826314,1.86996185 43.6878005,1.36685544 43.0498796,1.19002101 C42.5852276,1.06100659 42.1408684,1.43460046 42.1195349,1.86448247 C42.0929983,2.38502327 42.5560893,2.82686028 42.8438301,3.22336791 C42.8438301,3.22336791 44.0749237,4.76855216 44.7721619,8.96625288 L51.530689,8.96625288 C51.8069826,7.01559475 52.3668545,5.08635601 53.2769064,3.38326609 C53.6551841,2.67443398 54.8753508,1.42065296 54.5522278,0.509083913 C54.4205851,0.13897692 53.936681,0 53.5495577,0 Z M49.7829107,6.97375224 L46.4970458,6.97375224 C46.234801,5.83752875 45.940296,4.92496346 45.6577584,4.20616885 C46.2389636,4.14988071 46.9918768,3.92672064 47.7562371,3.28115043 C48.5679472,3.95611002 49.7267154,4.14639383 50.7548815,3.89185187 C50.3521484,4.85721843 50.0274644,5.88684314 49.7829107,6.97375224 Z" id="Shape" fill-rule="nonzero"></path>
                <path d="M62.6122758,49.2422979 C62.5009258,49.2592342 51.4013107,51.2552217 44.7952394,52.4432502 C44.2301643,52.5448677 43.8581305,53.0654085 43.9642772,53.6068706 C44.0704239,54.1473364 44.6120843,54.503994 45.1792407,54.4023765 C51.2113913,53.3169617 62.6887638,51.2537273 62.9327972,51.2118848 C63.5316935,51.1232185 64.4911765,51.2054092 64.6644454,51.79768 C65.1790488,53.5525749 61.3005315,55.0489429 59.4361999,55.7692319 C59.1536623,55.8783213 48.671155,59.8623263 45.3930951,60.8610673 C40.5759079,62.3280459 36.7332931,62.4904347 33.3032977,61.3701512 C31.1871279,60.6787535 22.0298934,55.9918939 19.2425017,55.2860505 C17.5696505,54.8616479 16.0164745,54.9368648 14.7510393,55.5007424 C14.7271042,55.5112031 12.6910648,56.6050859 12.6910648,56.6050859 L12.6910648,46.4258983 L19.0125172,44.6201946 C19.0655906,44.6037564 24.271462,43.0690328 29.214048,45.6891712 C29.214048,45.6891712 35.1676293,48.8761759 35.4309147,49.0091754 C36.6568051,49.6303374 39.5295303,51.0858592 39.8817917,52.4402615 C39.9317431,52.6325378 39.9551578,52.9015254 39.694474,53.270138 C39.2704075,53.6616644 37.3290675,53.648215 30.4737596,51.3658055 C29.5267645,51.0504923 28.8430548,50.8223509 28.4189883,50.7212315 C27.8601572,50.5882321 27.2966431,50.914006 27.1577158,51.4484943 C27.0193088,51.9824844 27.3590823,52.5229502 27.9168728,52.6559497 C28.2493618,52.7346534 28.9637707,52.9727573 29.7905703,53.2477223 C35.2945891,55.0803248 39.9671253,56.4327346 41.409992,54.3978933 C41.9485305,53.6382525 42.1186774,52.7939303 41.901701,51.9590726 C41.3251787,49.7409212 38.1236068,48.1190257 36.4039262,47.2478048 C36.1661367,47.1277566 30.2219213,43.9462312 30.2219213,43.9462312 C24.5035278,40.9151396 18.6311175,42.6461246 18.4006127,42.715364 L12.6905444,44.3462257 L12.6905444,44.1175863 C12.6905444,41.939285 10.8272535,40.1734313 8.52844892,40.1734313 L0.204257911,40.1734313 L0.204257911,63.5444675 L8.52844892,63.5444675 C10.8272535,63.5444675 12.6905444,61.7786138 12.6905444,59.6003125 L12.6905444,58.889986 L15.6616115,57.2929968 C16.6892573,56.8491673 17.8844483,57.0035861 18.7096869,57.2127986 C21.2618908,57.858867 30.3546047,62.5123522 32.6310352,63.2560531 C34.3194963,63.8069795 36.1161854,64.0834389 38.0445171,64.0834389 C40.4806881,64.0834389 43.1260304,63.6425982 46.0237314,62.7599204 C49.352263,61.7457376 59.9461203,57.7203882 60.2140887,57.6172762 C62.8256098,56.609569 67.6865045,54.7326334 66.6671839,51.2587086 C66.1624668,49.5356937 64.2117609,49.0061866 62.6122758,49.2422979 Z M10.6107975,59.6456419 C10.6107975,60.7215922 9.67681056,61.5967982 8.52948958,61.5967982 L2.28556583,61.5967982 L2.28556583,42.1654338 L8.52948958,42.1654338 C9.67681056,42.1654338 10.6107975,43.0406397 10.6107975,44.11659 L10.6107975,59.6456419 Z" id="Shape" fill-rule="nonzero"></path>
            </g>
        </g>
    </g>
</svg>