<!-- Generated by IcoMoon.io -->
<svg version="1.1" xmlns="http://www.w3.org/2000/svg" width="32" height="32" viewBox="0 0 32 32">
<title>icons-nav-settings-none</title>
<path fill="#acb1b8" d="M16 19.2c-1.767 0-3.2-1.433-3.2-3.2s1.433-3.2 3.2-3.2c1.767 0 3.2 1.433 3.2 3.2s-1.433 3.2-3.2 3.2zM16 17.067c0.589 0 1.067-0.478 1.067-1.067s-0.478-1.067-1.067-1.067c-0.589 0-1.067 0.478-1.067 1.067s0.478 1.067 1.067 1.067z"></path>
<path fill="#acb1b8" d="M22.336 16.356h0.064c0.196 0 0.356-0.159 0.356-0.356s-0.159-0.356-0.356-0.356h-0.125c-0.893-0.004-1.698-0.537-2.050-1.358-0.033-0.078-0.057-0.16-0.071-0.243-0.263-0.79-0.066-1.671 0.532-2.282l0.043-0.043c0.067-0.067 0.104-0.157 0.104-0.252s-0.038-0.185-0.105-0.252c-0.067-0.067-0.157-0.104-0.252-0.104s-0.185 0.037-0.252 0.105l-0.051 0.051c-0.655 0.64-1.633 0.818-2.46 0.453-0.821-0.352-1.354-1.157-1.358-2.054v-0.064c0-0.196-0.159-0.356-0.356-0.356s-0.356 0.159-0.356 0.356v0.125c-0.004 0.893-0.537 1.698-1.358 2.050-0.078 0.033-0.16 0.057-0.243 0.071-0.79 0.263-1.671 0.066-2.282-0.532l-0.043-0.043c-0.067-0.067-0.157-0.104-0.252-0.104s-0.185 0.037-0.252 0.105c-0.067 0.067-0.104 0.157-0.104 0.252s0.037 0.185 0.105 0.252l0.051 0.051c0.64 0.655 0.818 1.633 0.473 2.408-0.318 0.863-1.13 1.445-2.075 1.466h-0.064c-0.196 0-0.356 0.159-0.356 0.356s0.159 0.356 0.356 0.356h0.125c0.893 0.004 1.698 0.537 2.045 1.347 0.37 0.838 0.192 1.816-0.456 2.479l-0.043 0.043c-0.067 0.067-0.104 0.157-0.104 0.252s0.037 0.185 0.105 0.252c0.067 0.067 0.157 0.104 0.252 0.104s0.185-0.038 0.252-0.105l0.051-0.051c0.655-0.64 1.633-0.818 2.408-0.473 0.863 0.317 1.445 1.13 1.466 2.075v0.064c0 0.196 0.159 0.356 0.356 0.356s0.356-0.159 0.356-0.356v-0.125c0.004-0.893 0.537-1.698 1.347-2.045 0.838-0.37 1.816-0.192 2.479 0.456l0.043 0.043c0.067 0.067 0.157 0.104 0.252 0.104s0.185-0.038 0.252-0.105c0.067-0.067 0.104-0.157 0.104-0.252s-0.038-0.185-0.105-0.252l-0.051-0.051c-0.639-0.653-0.817-1.629-0.45-2.466 0.353-0.818 1.157-1.349 2.052-1.352zM22.279 13.511h0.121c1.375 0 2.489 1.114 2.489 2.489s-1.114 2.489-2.489 2.489h-0.060c-0.043 0-0.081 0.026-0.098 0.065l-0.005 0.011c-0.018 0.040-0.009 0.087 0.013 0.109l0.042 0.042c0.467 0.467 0.73 1.1 0.73 1.761s-0.263 1.294-0.729 1.76c-0.467 0.467-1.1 0.73-1.761 0.73s-1.294-0.263-1.76-0.73l-0.034-0.034c-0.031-0.030-0.078-0.039-0.128-0.017-0.039 0.017-0.064 0.055-0.065 0.093v0.121c0 1.375-1.114 2.489-2.489 2.489s-2.489-1.114-2.489-2.489l0-0.039c-0.001-0.044-0.029-0.082-0.132-0.123-0.040-0.018-0.086-0.009-0.109 0.013l-0.042 0.042c-0.467 0.467-1.1 0.73-1.761 0.73s-1.294-0.263-1.76-0.729c-0.467-0.467-0.73-1.1-0.73-1.761s0.263-1.294 0.73-1.76l0.034-0.034c0.030-0.031 0.039-0.078 0.017-0.128-0.017-0.039-0.055-0.064-0.093-0.065h-0.121c-1.375 0-2.489-1.114-2.489-2.489s1.114-2.489 2.489-2.489l0.039 0c0.044-0.001 0.082-0.029 0.123-0.132 0.018-0.040 0.009-0.086-0.013-0.109l-0.042-0.042c-0.467-0.467-0.73-1.1-0.73-1.761s0.263-1.294 0.729-1.76c0.467-0.467 1.1-0.73 1.761-0.73s1.294 0.263 1.76 0.73l0.034 0.034c0.031 0.030 0.078 0.039 0.118 0.021 0.037-0.016 0.075-0.031 0.114-0.043 0.011-0.017 0.018-0.036 0.018-0.055v-0.121c0-1.375 1.114-2.489 2.489-2.489s2.489 1.114 2.489 2.489v0.060c0 0.043 0.026 0.081 0.075 0.102 0.040 0.018 0.087 0.009 0.109-0.013l0.042-0.042c0.467-0.467 1.1-0.73 1.761-0.73s1.294 0.263 1.76 0.729c0.467 0.467 0.73 1.1 0.73 1.761s-0.263 1.294-0.73 1.76l-0.034 0.034c-0.030 0.031-0.039 0.078-0.021 0.118 0.016 0.037 0.031 0.075 0.043 0.114 0.017 0.011 0.036 0.018 0.055 0.018z"></path>
</svg>
