<!-- Generated by IcoMoon.io -->
<svg version="1.1" xmlns="http://www.w3.org/2000/svg" width="32" height="32" viewBox="0 0 32 32">
<title>icons-nav-payment-none</title>
<path fill="#acb1b8" d="M17.067 9.956h2.489c0.589 0 1.067 0.478 1.067 1.067s-0.478 1.067-1.067 1.067h-2.489v2.844h0.711c1.964 0 3.556 1.592 3.556 3.556s-1.592 3.556-3.556 3.556h-0.711v1.778c0 0.589-0.478 1.067-1.067 1.067s-1.067-0.478-1.067-1.067v-1.778h-3.2c-0.589 0-1.067-0.478-1.067-1.067s0.478-1.067 1.067-1.067h3.2v-2.844h-0.711c-1.964 0-3.556-1.592-3.556-3.556s1.592-3.556 3.556-3.556h0.711v-1.778c0-0.589 0.478-1.067 1.067-1.067s1.067 0.478 1.067 1.067v1.778zM17.067 17.067v2.844h0.711c0.785 0 1.422-0.637 1.422-1.422s-0.637-1.422-1.422-1.422h-0.711zM14.933 14.933v-2.844h-0.711c-0.785 0-1.422 0.637-1.422 1.422s0.637 1.422 1.422 1.422h0.711z"></path>
</svg>
