<!-- Generated by IcoMoon.io -->
<svg version="1.1" xmlns="http://www.w3.org/2000/svg" width="32" height="32" viewBox="0 0 32 32">
<title>icons-nav-users-roles-none</title>
<path fill="#acb1b8" d="M20.622 22.4c0 0.589-0.478 1.067-1.067 1.067s-1.067-0.478-1.067-1.067v-1.422c0-0.982-0.796-1.778-1.778-1.778h-5.689c-0.982 0-1.778 0.796-1.778 1.778v1.422c0 0.589-0.478 1.067-1.067 1.067s-1.067-0.478-1.067-1.067v-1.422c0-2.16 1.751-3.911 3.911-3.911h5.689c2.16 0 3.911 1.751 3.911 3.911v1.422z"></path>
<path fill="#acb1b8" d="M13.867 16.356c-2.16 0-3.911-1.751-3.911-3.911s1.751-3.911 3.911-3.911c2.16 0 3.911 1.751 3.911 3.911s-1.751 3.911-3.911 3.911zM13.867 14.222c0.982 0 1.778-0.796 1.778-1.778s-0.796-1.778-1.778-1.778c-0.982 0-1.778 0.796-1.778 1.778s0.796 1.778 1.778 1.778z"></path>
<path fill="#acb1b8" d="M24.889 22.4c0 0.589-0.478 1.067-1.067 1.067s-1.067-0.478-1.067-1.067v-1.421c-0.001-0.81-0.549-1.517-1.333-1.72-0.57-0.147-0.913-0.729-0.766-1.299s0.729-0.913 1.299-0.766c1.726 0.446 2.932 2.002 2.933 3.785v1.422z"></path>
<path fill="#acb1b8" d="M18.58 10.726c-0.571-0.146-0.915-0.727-0.769-1.298s0.727-0.915 1.298-0.769c1.731 0.443 2.941 2.002 2.941 3.789s-1.21 3.346-2.941 3.789c-0.571 0.146-1.152-0.198-1.298-0.769s0.198-1.152 0.769-1.298c0.787-0.201 1.337-0.91 1.337-1.722s-0.55-1.521-1.337-1.722z"></path>
</svg>
