<!-- Generated by IcoMoon.io -->
<svg version="1.1" xmlns="http://www.w3.org/2000/svg" width="32" height="32" viewBox="0 0 32 32">
<title>icons-nav-reports-none</title>
<path fill="#acb1b8" d="M17.422 7.822c0.283 0 0.554 0.112 0.754 0.312l4.267 4.267c0.2 0.2 0.312 0.471 0.312 0.754v8.533c0 1.375-1.114 2.489-2.489 2.489h-8.533c-1.375 0-2.489-1.114-2.489-2.489v-11.378c0-1.375 1.114-2.489 2.489-2.489h5.689zM11.733 9.956c-0.196 0-0.356 0.159-0.356 0.356v11.378c0 0.196 0.159 0.356 0.356 0.356h8.533c0.196 0 0.356-0.159 0.356-0.356v-8.091l-3.642-3.642h-5.247z"></path>
<path fill="#acb1b8" d="M21.689 12.089c0.589 0 1.067 0.478 1.067 1.067s-0.478 1.067-1.067 1.067h-4.267c-0.589 0-1.067-0.478-1.067-1.067v-4.267c0-0.589 0.478-1.067 1.067-1.067s1.067 0.478 1.067 1.067v3.2h3.2z"></path>
<path fill="#acb1b8" d="M18.844 15.644c0.589 0 1.067 0.478 1.067 1.067s-0.478 1.067-1.067 1.067h-5.689c-0.589 0-1.067-0.478-1.067-1.067s0.478-1.067 1.067-1.067h5.689z"></path>
<path fill="#acb1b8" d="M18.844 18.489c0.589 0 1.067 0.478 1.067 1.067s-0.478 1.067-1.067 1.067h-5.689c-0.589 0-1.067-0.478-1.067-1.067s0.478-1.067 1.067-1.067h5.689z"></path>
<path fill="#acb1b8" d="M14.578 12.8c0.589 0 1.067 0.478 1.067 1.067s-0.478 1.067-1.067 1.067h-1.422c-0.589 0-1.067-0.478-1.067-1.067s0.478-1.067 1.067-1.067h1.422z"></path>
</svg>
